# xmcd CD database file
#
# Track frame offsets:
#	182
#	11915
#	23570
#	38030
#	50867
#	64832
#	77255
#	90972
#	104360
#	118775
#	132197
#	147637
#	162730
#	175722
#	188525
#	202732
#	216702
#	231910
#	245810
#	258042
#	271715
#	286380
#
# Disc length: 3960 seconds
#
# Revision: 0
# Processed by: cddbd v1.5.1PL0 Copyright (c) Steve Scherf et al.
# Submitted via: CDex 1.51
#
DISCID=390f7616
DTITLE=Various Artist - The Big Band Era [Charly #15, 1995] [CD1] [Swing That Music]
DYEAR=1928
DGENRE=Jazz
TTITLE0=Put It There (Shag Nasty)
TTITLE1=Stop Kidding (Neckbones and Sauerkraut)
TTITLE2=After You've Gone
TTITLE3=China Boy
TTITLE4=Mush Mouth
TTITLE5=Three Little Words
TTITLE6=Sentimenatal Gentleman from Georgia
TTITLE7=Blue Prelude
TTITLE8=Hneysuckle Rose
TTITLE9=Down South Camp Meeting
TTITLE10=Toby
TTITLE11=Moten Swing
TTITLE12=Mahogany Hall Stomp
TTITLE13=Swing That Music
TTITLE14=Devil's Holiday
TTITLE15=Symphony in Riffs
TTITLE16=If Dreams Come True
TTITLE17=Let's Get Together
TTITLE18=Rosetta
TTITLE19=Cavernism
TTITLE20=Stop, Look and Listen
TTITLE21=Dippermouth Blues
EXTD=YEAR: 1928
EXTT0=
EXTT1=
EXTT2=
EXTT3=
EXTT4=
EXTT5=
EXTT6=
EXTT7=
EXTT8=
EXTT9=
EXTT10=
EXTT11=
EXTT12=
EXTT13=
EXTT14=
EXTT15=
EXTT16=
EXTT17=
EXTT18=
EXTT19=
EXTT20=
EXTT21=
PLAYORDER=
